<svg xmlns="http://www.w3.org/2000/svg" viewBox="0 0 720 900" width="720" height="900" preserveAspectRatio="xMidYMid slice">
  <defs>
    <linearGradient id="panel" x1="0" y1="0" x2="1" y2="1">
      <stop offset="0%" stop-color="#0f3d2e"/>
      <stop offset="100%" stop-color="#1f6b4a"/>
    </linearGradient>
  </defs>
  <rect width="720" height="900" fill="url(#panel)"/>
  <circle cx="560" cy="120" r="80" fill="#f2c14e" opacity="0.9"/>
  <rect x="0" y="560" width="720" height="340" fill="#145c43"/>
  <rect x="70" y="430" width="250" height="140" rx="12" fill="#8b5a2b"/>
  <rect x="90" y="400" width="210" height="80" rx="10" fill="#f2c14e"/>
  <rect x="110" y="380" width="170" height="55" rx="8" fill="#e8b423"/>
  <rect x="360" y="470" width="230" height="120" rx="12" fill="#8b5a2b"/>
  <circle cx="400" cy="455" r="28" fill="#d94841"/>
  <circle cx="445" cy="440" r="32" fill="#e85d4c"/>
  <circle cx="490" cy="458" r="26" fill="#c1121f"/>
  <circle cx="530" cy="448" r="22" fill="#fb8500"/>
  <rect x="120" y="620" width="200" height="110" rx="12" fill="#6b4f2a"/>
  <ellipse cx="170" cy="615" rx="28" ry="14" fill="#f4e4b3"/>
  <ellipse cx="215" cy="605" rx="32" ry="16" fill="#f2c14e"/>
  <ellipse cx="262" cy="618" rx="24" ry="12" fill="#e8b423"/>
  <rect x="400" y="650" width="220" height="100" rx="12" fill="#2d6a4f"/>
  <text x="510" y="708" text-anchor="middle" font-family="Segoe UI, Arial, sans-serif" font-size="28" font-weight="700" fill="#fff">AgriAuction</text>
  <text x="80" y="830" font-family="Segoe UI, Arial, sans-serif" font-size="22" fill="#d8f3dc">Maize, Soybeans, Groundnuts</text>
</svg>
